<svg xmlns="http://www.w3.org/2000/svg" width="154" height="21" fill="none"><path fill="#271E1B" d="M.6 20c.15 0 .288-.139.416-.416.15-.299.224-.8.224-1.504V2.72c0-.683-.075-1.173-.224-1.472C.888.949.749.8.6.8h6.176c-.15 0-.299.15-.448.448-.15.277-.224.779-.224 1.504V18.08c0 .683.075 1.173.224 1.472.15.299.299.448.448.448H.6zm9.215 0c.15 0 .299-.15.448-.448.15-.299.224-.79.224-1.472V2.72c0-.683-.075-1.163-.224-1.44-.15-.299-.299-.459-.448-.48h6.272c-.15 0-.192.15-.128.448.085.299.437.81 1.056 1.536.17.17.448.49.832.96a123.313 123.313 0 0 1 3.2 3.712l1.92 2.24c.661.747 1.29 1.461 1.888 2.144h.032V2.72c0-.683-.075-1.163-.224-1.44-.15-.299-.299-.459-.448-.48h6.272c-.15 0-.299.15-.448.448-.15.299-.224.8-.224 1.504V18.08c0 .683.075 1.173.224 1.472.15.299.299.448.448.448h-5.504c.128 0 .139-.15.032-.448-.085-.299-.416-.81-.992-1.536a73.75 73.75 0 0 0-1.184-1.472c-.49-.619-1.045-1.301-1.664-2.048a314.86 314.86 0 0 0-1.888-2.336c-.661-.81-1.323-1.6-1.984-2.368a161.32 161.32 0 0 0-1.792-2.176h-.096V18.08c0 .683.075 1.173.224 1.472.15.299.299.448.448.448H9.815zm29.859 0c.15 0 .299-.15.448-.448.15-.299.224-.79.224-1.472V5.28c0-.47-.053-.747-.16-.832-.107-.085-.48-.128-1.12-.128H36.73c-1.237 0-2.24.139-3.008.416-.747.256-1.237.501-1.472.736l.64-3.712V.8h19.84v.96l.64 3.712c-.235-.235-.736-.48-1.504-.736-.747-.277-1.739-.416-2.976-.416h-2.304c-.661 0-1.045.043-1.152.128-.107.085-.16.363-.16.832v12.8c0 .683.075 1.173.224 1.472.15.299.299.448.448.448h-6.272zm25.526.32c-3.67 0-6.325-.875-7.968-2.624-1.621-1.77-2.432-4.235-2.432-7.392 0-2.027.352-3.765 1.056-5.216.725-1.472 1.845-2.603 3.36-3.392C60.752.886 62.746.48 65.2.48h.992c2.41 0 4.363.395 5.856 1.184 1.515.79 2.624 1.92 3.328 3.392.704 1.472 1.056 3.221 1.056 5.248 0 3.157-.81 5.621-2.432 7.392-1.621 1.75-4.224 2.624-7.808 2.624H65.2zm.32-3.552h.352c1.301 0 2.368-.213 3.2-.64.853-.427 1.483-1.11 1.888-2.048.405-.96.608-2.219.608-3.776 0-1.515-.213-2.73-.64-3.648-.405-.939-1.035-1.61-1.888-2.016-.832-.427-1.888-.64-3.168-.64h-.352c-1.323 0-2.421.224-3.296.672-.875.427-1.525 1.099-1.952 2.016-.405.917-.608 2.123-.608 3.616 0 1.557.213 2.816.64 3.776.448.939 1.099 1.621 1.952 2.048.875.427 1.963.64 3.264.64zM79.18 20c.149 0 .287-.15.415-.448.15-.299.225-.79.225-1.472V2.72c0-.683-.075-1.163-.224-1.44-.15-.299-.3-.459-.449-.48h10.496c1.878 0 3.371.235 4.48.704 1.131.47 1.942 1.163 2.432 2.08.512.896.768 2.016.768 3.36 0 .96-.18 1.813-.543 2.56a4.693 4.693 0 0 1-1.44 1.824c-.62.47-1.313.81-2.08 1.024v.096c.853.341 1.749 1.013 2.688 2.016a19.63 19.63 0 0 1 2.528 3.296c.49.79.938 1.355 1.344 1.696.405.341.714.523.928.544h-8.065c.256-.021.46-.16.608-.416.171-.277.118-.725-.16-1.344-.448-1.024-.992-1.91-1.632-2.656a6.374 6.374 0 0 0-2.24-1.696c-.832-.405-1.791-.608-2.88-.608h-.352c-.66 0-1.045.053-1.151.16-.107.107-.16.373-.16.8v3.84c0 .683.074 1.173.224 1.472.149.299.298.448.448.448h-6.209zm6.847-9.952h2.624c1.345 0 2.315-.235 2.913-.704.597-.49.896-1.29.896-2.4 0-.49-.107-.928-.32-1.312-.214-.384-.576-.683-1.088-.896-.491-.213-1.184-.32-2.08-.32h-2.944c-.662 0-1.046.032-1.153.096-.106.064-.16.31-.16.736v3.936c0 .427.054.683.16.768.107.064.491.096 1.153.096zM102.175 20c.149 0 .288-.139.416-.416.149-.299.224-.8.224-1.504V2.72c0-.683-.075-1.173-.224-1.472-.128-.299-.267-.448-.416-.448h6.176c-.149 0-.299.15-.448.448-.149.277-.224.779-.224 1.504V18.08c0 .683.075 1.173.224 1.472.149.299.299.448.448.448h-6.176zm9.215 0c.149 0 .299-.15.448-.448.149-.299.224-.79.224-1.472V2.72c0-.683-.075-1.163-.224-1.44-.149-.299-.299-.459-.448-.48h18.688v.96l.64 3.712c-.533-.235-1.472-.48-2.816-.736-1.344-.277-2.965-.416-4.864-.416h-4.736c-.64 0-1.024.053-1.152.16-.107.085-.16.352-.16.8v2.368c0 .47.053.747.16.832.128.085.501.128 1.12.128h4.608c1.237 0 2.229-.064 2.976-.192.768-.15 1.269-.299 1.504-.448-.085.405-.181.875-.288 1.408a22.822 22.822 0 0 0-.256 1.536c-.064.49-.096.896-.096 1.216h-8.448c-.619 0-.992.043-1.12.128-.107.064-.16.341-.16.832v2.368c0 .49.053.779.16.864.107.085.48.128 1.12.128h8.64c1.237 0 2.229-.139 2.976-.416.768-.299 1.269-.587 1.504-.864l-.64 3.84V20h-19.36zm22.09 0c.149 0 .299-.15.448-.448.149-.299.224-.79.224-1.472V2.72c0-.683-.075-1.163-.224-1.44-.149-.299-.299-.459-.448-.48h18.688v.96l.64 3.712c-.533-.235-1.472-.48-2.816-.736-1.344-.277-2.965-.416-4.864-.416h-4.736c-.64 0-1.024.053-1.152.16-.107.085-.16.352-.16.8v2.368c0 .47.053.747.16.832.128.085.501.128 1.12.128h4.608c1.237 0 2.229-.064 2.976-.192.768-.15 1.269-.299 1.504-.448-.085.405-.181.875-.288 1.408a22.822 22.822 0 0 0-.256 1.536c-.064.49-.096.896-.096 1.216h-8.448c-.619 0-.992.043-1.12.128-.107.064-.16.341-.16.832v2.368c0 .49.053.779.16.864.107.085.48.128 1.12.128H149c1.237 0 2.229-.139 2.976-.416.768-.299 1.269-.587 1.504-.864l-.64 3.84V20h-19.36z"/></svg>