<svg xmlns="http://www.w3.org/2000/svg" width="154" height="44" fill="none"><path fill="#43505C" d="M51.439 28V10.888h-2.806V28h2.806zm1.717-5.704c0 3.496 2.346 5.98 5.911 5.98 3.565 0 5.911-2.484 5.911-5.98 0-3.496-2.346-5.98-5.91-5.98-3.566 0-5.912 2.484-5.912 5.98zm2.83 0c0-2.047 1.218-3.473 3.081-3.473s3.082 1.426 3.082 3.473c0 2.024-1.219 3.473-3.082 3.473-1.863 0-3.082-1.449-3.082-3.473zm9.936-.23c0 3.312 2.14 5.704 5.336 5.704 1.656 0 3.082-.667 3.795-1.771v1.932c0 1.863-1.173 3.105-3.128 3.105-1.748 0-2.944-.851-3.105-2.346h-2.829c.368 2.967 2.645 4.899 5.773 4.899 3.68 0 6.026-2.415 6.026-6.164V16.638h-2.484l-.16 1.541c-.69-1.196-2.117-1.909-3.796-1.909-3.243 0-5.428 2.461-5.428 5.796zm2.852-.069c0-1.886 1.196-3.266 2.967-3.266 1.932 0 3.22 1.403 3.22 3.266 0 1.886-1.288 3.335-3.22 3.335-1.748 0-2.967-1.426-2.967-3.335zm10.405.299c0 3.496 2.346 5.98 5.91 5.98 3.566 0 5.912-2.484 5.912-5.98 0-3.496-2.346-5.98-5.911-5.98-3.565 0-5.911 2.484-5.911 5.98zm2.829 0c0-2.047 1.219-3.473 3.082-3.473 1.863 0 3.082 1.426 3.082 3.473 0 2.024-1.22 3.473-3.082 3.473-1.863 0-3.082-1.449-3.082-3.473zm12.029-7.981c.92 0 1.68-.736 1.68-1.679 0-.92-.76-1.656-1.68-1.656-.943 0-1.656.736-1.656 1.656 0 .943.713 1.679 1.656 1.679zM92.634 28h2.806V16.638h-2.805V28zm5.265 5.267h2.737v-6.831c.713 1.173 2.254 1.863 3.956 1.863 3.358 0 5.359-2.576 5.313-6.118-.069-3.565-2.116-5.888-5.336-5.888-1.725 0-3.289.759-3.979 2.07l-.161-1.725h-2.53v16.629zm2.852-10.948c0-2.047 1.242-3.473 3.197-3.473s3.128 1.449 3.128 3.473-1.173 3.45-3.128 3.45-3.197-1.403-3.197-3.45zm9.866 2.277c.092 2.254 1.84 3.703 4.554 3.703 2.668 0 4.485-1.426 4.485-3.634 0-1.633-1.012-2.737-2.875-3.197l-2.001-.483c-.851-.23-1.426-.529-1.426-1.265 0-.782.621-1.334 1.633-1.334 1.058 0 1.748.598 1.748 1.587h2.553c-.092-2.254-1.771-3.68-4.232-3.68-2.438 0-4.255 1.426-4.255 3.588 0 1.472.851 2.691 3.036 3.266l1.978.506c.736.207 1.196.552 1.196 1.196 0 .897-.851 1.311-1.886 1.311-1.242 0-1.955-.575-1.955-1.564h-2.553zm14.86 3.703c1.541 0 3.013-.713 3.68-1.771l.184 1.472h2.622V16.638h-2.806v5.957c0 2.047-.782 3.197-2.622 3.197-1.426 0-2.415-.69-2.415-3.036v-6.118h-2.806v7.107c0 2.714 1.472 4.554 4.163 4.554zM137.245 28v-6.532c0-1.84 1.081-2.714 2.415-2.714s2.208.851 2.208 2.461V28h2.737v-6.509c0-1.863 1.058-2.737 2.392-2.737 1.357 0 2.231.851 2.231 2.461V28h2.714v-7.429c0-2.622-1.449-4.278-4.209-4.278-1.725 0-3.082.828-3.634 2.162-.621-1.334-1.863-2.162-3.749-2.162-1.334 0-2.53.621-3.197 1.633l-.138-1.288h-2.576V28h2.806z" class="ccustom"/><path fill="#8E98A1" d="M130.518 38.154a.79.79 0 0 0 .781-.77.791.791 0 0 0-.781-.781.794.794 0 0 0-.792.781c0 .418.363.77.792.77zm1.588-2.838c0 1.683 1.034 2.816 2.541 2.816 1.298 0 2.288-.781 2.497-1.947h-.99c-.187.649-.759 1.034-1.441 1.034-.968 0-1.584-.748-1.584-1.914 0-1.188.649-1.914 1.606-1.914.66 0 1.232.352 1.408 1.045h.99c-.176-1.177-1.1-1.969-2.387-1.969-1.562 0-2.64 1.155-2.64 2.849zm5.428-.011c0 1.617 1.1 2.827 2.75 2.827s2.75-1.21 2.75-2.827-1.1-2.827-2.75-2.827-2.75 1.21-2.75 2.827zm1.045 0c0-1.1.671-1.903 1.705-1.903s1.705.803 1.705 1.903-.671 1.903-1.705 1.903-1.705-.803-1.705-1.903zm6.372 2.706v-3.234c0-.847.528-1.397 1.298-1.397.737 0 1.199.473 1.199 1.32v3.311h1.012v-3.223c0-.858.517-1.408 1.298-1.408.726 0 1.188.473 1.188 1.32v3.311h1.001V34.48c0-1.243-.726-2.002-1.958-2.002-.836 0-1.485.407-1.749 1.067-.275-.66-.88-1.067-1.76-1.067-.671 0-1.265.308-1.562.836l-.077-.682h-.924v5.379h1.034z" class="ccustom"/><path fill="#43505C" fill-rule="evenodd" d="m2 22.435.002-.2.004-.2.006-.201.008-.2.01-.201.012-.2.015-.201.016-.2.018-.2.02-.201.023-.2.025-.2.027-.2.028-.2.031-.199.033-.199.035-.199.037-.198.039-.199.04-.198.044-.198.045-.197.047-.197.05-.197.05-.196.054-.196.055-.195.057-.195.06-.195.06-.194.064-.193.066-.193.067-.192.07-.192.07-.191.074-.19.075-.19.078-.19.079-.188.081-.188.083-.187.086-.186.087-.186.089-.184.09-.184.093-.184.095-.182.097-.181.098-.18.101-.18.102-.18.105-.177.106-.177.108-.176.11-.175.111-.174.113-.172.116-.172.117-.171.119-.17.12-.168.123-.168.124-.166.126-.165.128-.164L6.45 10l.131-.162.133-.16.134-.16.137-.157.138-.157.14-.155.14-.154.143-.153.145-.151.146-.15.147-.149.15-.147.15-.146.153-.144.153-.143.156-.142.157-.14.158-.138.16-.137.161-.136.163-.134.164-.132.166-.131.167-.13.169-.127.17-.126.17-.125.173-.123.174-.12.175-.12.177-.118.177-.116.18-.115.18-.113.181-.11.183-.11.184-.108.184-.106.187-.104.187-.102.188-.1.19-.1.19-.096.192-.095.193-.093.194-.091.194-.09.196-.087.197-.086.198-.084.198-.082.2-.08.2-.078.201-.076.203-.074.203-.072.203-.07.205-.069.205-.066.206-.064.207-.063.208-.06.208-.058.209-.057.21-.054.21-.052.21-.05.212-.048.212-.046.213-.044.213-.042.213-.04.214-.038.215-.036.215-.033.215-.032.216-.03.216-.027.217-.025.217-.023.217-.02.218-.02.217-.016.218-.015L23.143 2l.067 5.649h.038l.162-.001.162.001.162.003.162.005.162.006.162.008.162.009.162.011.162.012.162.015.162.015.162.018.162.019.161.02.162.022.161.024.162.025.16.027.161.029.161.03.16.031.16.034.16.034.16.037.16.038.159.04.158.04.159.044.158.044.157.046.157.047.157.05.157.05.156.052.155.054.155.055.155.057.154.059.153.06.153.061.153.063.152.065.15.066.152.067.15.07.149.07.149.072.148.074.147.075.147.076.146.078.145.08.145.08.143.083.143.084.143.086.141.086.14.089.14.09.14.09.137.093.137.094.137.095.135.097.134.098.134.1.133.1.131.102.13.104.13.104.129.106.127.108.127.108.125.11.125.112.123.112.122.114.121.115.12.117.119.117.118.12.116.12.116.12.114.123.113.123.111.125.11.126.11.127.108.128.107.13.105.13.105.132.102.132.102.134.1.135.1.136.097.136.096.138.095.14.093.14.093.14.09.142.09.143.087.143.087.145.085.146.083.146.082.148.081.148.08.149.077.15.076.15.074.152.074.153.071.153.07.154.069.155.067.155.065.157.064.157.062.157.06.159.06.159.057.16.056.16.054.16.052.162.051.162.05.163.047.163.046.164.044.165.043.164.041.166.04.166.037.166.036.167.034.167.033.168.03.168.03.168.027.169.026.169.024.17.022.169.02.17.02.17.016.17.016.172.013.17.012.172.01.172.008.171.007.172.005.172.003.172.001.172v.173l-.003.172-.004.172-.006.173-.007.172-.01.173-.01.172-.014.173-.014.172-.017.173-.018.172-.02.172-.022.172-.023.172-.026.172-.027.172-.029.17-.03.172-.033.171-.034.17-.036.171-.038.17-.04.17-.04.17-.044.17-.045.168-.046.169-.048.168-.05.168-.052.168-.054.166-.055.167-.057.166-.059.166-.06.165-.062.164-.064.164-.066.164-.067.163-.07.162-.07.162-.072.16-.074.161-.076.16-.078.16-.079.158-.08.157-.083.157-.084.157-.086.155-.087.155-.09.154-.09.153-.092.152-.094.152-.095.15-.097.15-.099.15-.1.147-.102.147-.103.147-.105.145-.106.144-.108.143-.11.143-.11.14-.113.141-.114.14-.115.138-.117.137-.118.136-.12.135-.121.133-.123.133-.124.132-.125.13-.127.129-.128.128-.13.127-.13.125-.133.125-.134.123-.135.122-.136.12-.138.12-.138.118-.14.116-.142.116-.143.114-.144.112-.145.112-.146.11-.147.108-.149.107-.15.106-.15.105-.153.102-.153.102-.155.1-.155.098-.156.097-.158.096-.159.094-.16.093-.16.09-.162.09-.163.088-.163.086-.165.085-.165.084-.167.081-.167.08-.169.079-.169.076-.17.076-.17.073-.172.072-.173.07-.173.069-.174.067-.175.065-.176.064-.176.062-.177.06-.178.058-.178.057-.18.055-.18.053-.18.052-.18.05-.182.047-.182.047-.183.044-.183.043-.184.04-.184.04-.185.038-.185.035-.186.034-.186.032-.186.03-.187.028-.187.027-.188.025-.188.023-.188.02-.188.02-.19.017-.188.016-.19.013-.189.012-.19.01-.19.008-.19.006-.19.005-.19.002-.19.001-.191-.001-.19-.003-.192-.005-.19-.007-.19-.009-.192-.01-.19-.013-.19-.014-.191-.016-.19-.018-.191-.02-.19-.022-.19-.024-.19-.025-.19-.028-.19-.03-.19-.03-.188-.033-.19-.035-.188-.037-.188-.039-.188-.04-.188-.043-.187-.044-.187-.046-.186-.048-.186-.05-.186-.052-.185-.053-.185-.055-.184-.057-.184-.06-.183-.06-.183-.063-.182-.064-.181-.067-.181-.068-.18-.07-.18-.071-.18-.074-.177-.075-.178-.077-.177-.079-.176-.08-.176-.083-.174-.084-.174-.086-.173-.088-.172-.089-.171-.091-.171-.093-.17-.094-.168-.096-.168-.098-.167-.1-.166-.101-.165-.103-.164-.105-.163-.106-.162-.108-.16-.11-.16-.11-.16-.113-.157-.114-.157-.116-.155-.118-.154-.12-.154-.12-.152-.122-.15-.124-.15-.125-.148-.127-.147-.128-.146-.13-.145-.131-.143-.133-.142-.134-.141-.136-.14-.137-.137-.139-.137-.14-.135-.14-.134-.144-.133-.144-.13-.145-.13-.147-.128-.148-.127-.15-.125-.15-.124-.152-.122-.154-.12-.154-.12-.156-.118-.157-.116-.158-.114-.16-.113-.16-.111-.162-.11-.163-.108-.165-.106-.165-.105-.166-.103-.168-.102-.168-.1-.17-.097-.17-.097-.172-.094-.173-.093-.174-.091-.174-.09-.176-.087-.177-.086-.177-.084-.179-.082-.179-.08-.18-.08-.181-.076-.182-.075-.183-.073-.184-.071-.184-.07-.185-.067-.186-.066-.187-.064-.187-.062-.188-.06-.189-.058-.19-.056-.19-.054-.19-.052-.191-.05-.192-.049-.192-.046-.193-.045-.194-.042-.194-.041-.194-.039-.195-.036-.196-.035-.196-.032-.196-.03-.197-.03-.197-.026-.197-.025-.198-.022-.198-.02-.199-.02-.198-.016-.2-.014-.198-.013-.2-.01-.2-.008-.2-.006-.2-.005-.2-.002-.2v-.2zM21.378 7.767l-.046-3.85-.043.004-.199.021-.198.023-.198.025-.197.027-.198.029-.197.03-.196.033-.196.035-.195.037-.196.038-.194.04-.195.042-.193.044-.193.046-.192.048-.192.05-.192.051-.19.054-.19.055-.19.057-.188.059-.188.06-.187.063-.187.064-.185.066-.185.068-.184.07-.184.071-.182.073-.182.075-.18.077-.18.078-.18.08-.178.082-.177.084-.176.085-.176.087-.174.088-.173.09-.173.092-.17.094-.171.095-.17.097-.167.098-.168.1-.165.102-.165.103-.164.105-.162.106-.161.108-.16.109-.16.11-.157.113-.156.114-.156.115-.154.117-.152.118-.152.12-.15.12-.148.123-.148.124-.146.125-.144.126-.144.129-.142.129-.14.13-.14.132-.137.133-.137.135-.134.136-.134.137-.132.138-.13.139-.13.14-.127.143-.125.143-.125.144-.123.145-.121.146-.12.148-.118.149-.116.15-.115.15-.114.152-.112.153-.11.154-.108.155-.107.155-.105.157-.104.158-.101.159-.1.16-.1.16-.096.161-.095.162-.093.163-.092.164-.09.165-.088.166-.087.166-.084.167-.083.168-.082.168-.079.17-.078.17-.075.17-.075.171-.072.172-.07.172-.069.174-.067.173-.065.175-.063.174-.062.176-.06.175-.057.177-.056.177-.054.177-.052.177-.05.178-.049.179-.047.179-.045.179-.043.18-.04.18-.04.18-.037.18-.036.18-.033.182-.032.181-.03.181-.028.182-.026.182-.024.182-.023.182-.02.182-.019.183-.017.182-.015.182-.013.183-.01.183-.01.182-.007.183-.006.182-.003.183-.002.182v.182l.002.183.004.182.005.182.008.182.01.181.01.182.014.181.015.181.017.18.018.181.02.18.023.18.024.18.026.18.028.179.03.178.031.178.034.178.035.177.037.177.038.177.04.176.043.175.044.175.046.175.047.174.05.173.05.173.053.172.055.172.056.17.058.17.06.17.061.17.063.168.065.167.066.167.069.166.07.165.07.165.074.164.075.163.076.162.078.161.08.16.08.16.083.159.085.158.086.156.087.156.09.155.09.154.092.154.093.152.096.15.096.15.098.15.1.148.1.147.103.146.104.144.105.144.107.143.108.141.11.14.11.14.113.138.114.136.115.136.116.134.118.134.119.132.12.13.121.13.123.128.124.127.125.126.126.124.128.123.129.122.13.12.131.12.132.117.134.116.134.115.136.114.136.112.138.111.14.11.14.107.14.107.142.105.143.104.144.102.145.1.146.1.146.098.148.096.149.095.149.093.15.092.152.09.152.089.152.087.154.085.155.084.155.083.156.08.156.08.158.078.158.076.159.075.16.073.16.07.16.07.162.069.162.066.163.065.163.063.164.062.164.06.165.059.165.056.166.055.166.054.167.051.167.05.167.049.168.047.169.045.169.043.169.042.169.04.17.038.17.037.17.035.17.033.171.032.171.03.172.028.17.026.172.025.172.023.172.022.172.02.172.017.172.017.173.014.172.013.172.012.173.01.172.007.172.006.173.005.172.002.172.002.172-.001.172-.002.172-.004.172-.006.171-.007.172-.01.17-.01.172-.012.17-.014.171-.016.17-.017.17-.02.17-.02.17-.022.168-.024.169-.026.168-.027.168-.029.168-.03.167-.033.167-.033.166-.036.166-.037.165-.038.165-.04.164-.042.164-.044.163-.044.163-.047.162-.048.162-.05.16-.05.161-.053.16-.055.159-.056.158-.057.158-.059.157-.06.156-.062.156-.063.154-.065.154-.066.154-.068.152-.07.152-.07.15-.072.15-.074.15-.075.148-.076.148-.078.147-.08.145-.08.145-.082.144-.083.143-.085.142-.086.141-.088.14-.088.139-.09.138-.092.137-.093.136-.093.135-.096.134-.096.132-.098.132-.099.13-.1.13-.102.129-.102.127-.104.126-.105.125-.106.124-.108.123-.108.121-.11.12-.11.12-.113.117-.113.117-.114.115-.115.114-.116.113-.117.112-.119.11-.119.11-.12.107-.122.106-.122.105-.123.104-.125.102-.125.102-.126.1-.127.098-.128.097-.129.095-.13.095-.13.092-.131.092-.132.09-.133.088-.134.088-.135.085-.135.085-.136.082-.137.082-.138.08-.138.078-.14.077-.139.076-.14.074-.141.072-.142.071-.142.07-.143.068-.144.066-.144.066-.144.063-.146.062-.145.06-.147.06-.146.057-.147.055-.148.055-.148.052-.149.052-.149.05-.15.047-.149.047-.15.044-.151.044-.15.042-.152.04-.152.038-.151.037-.153.036-.152.034-.153.032-.153.03-.153.03-.153.027-.153.026-.154.024-.154.023-.154.021-.154.02-.154.018-.155.016-.154.015-.155.013-.154.012-.155.01-.154.008-.155.007-.154.005-.155.004-.154.002-.155v-.308l-.004-.154-.004-.154-.006-.154-.007-.154-.01-.153-.01-.154-.012-.153-.014-.153-.015-.152-.017-.153-.018-.152-.02-.152-.021-.152-.023-.151-.025-.151-.026-.15-.028-.151-.029-.15-.03-.15-.032-.149-.034-.148-.035-.149-.037-.148-.038-.147-.04-.147-.04-.146-.043-.147-.044-.145-.046-.145-.047-.145-.048-.143-.05-.144-.051-.142-.053-.142-.054-.142-.056-.14-.057-.141-.058-.14-.06-.138-.061-.139-.063-.137-.064-.137-.065-.136-.067-.136-.068-.135-.069-.134-.07-.133-.073-.132-.073-.132-.075-.13-.075-.13-.078-.13-.078-.128-.08-.128-.08-.126-.083-.126-.083-.125-.085-.123-.086-.124-.087-.122-.088-.12-.09-.121-.09-.12-.092-.118-.093-.117-.094-.116-.095-.116-.096-.114-.098-.113-.099-.113-.099-.11-.1-.111-.103-.11-.102-.107-.104-.107-.105-.106-.106-.105-.107-.104-.108-.102-.109-.102-.11-.1-.11-.1-.112-.097-.113-.097-.114-.096-.114-.094-.115-.094-.117-.092-.117-.09-.118-.09-.119-.089-.12-.087-.12-.086-.121-.085-.122-.083-.123-.083-.123-.08-.125-.08-.125-.08-.126-.076-.127-.076-.127-.075-.127-.073-.13-.072-.128-.071-.13-.07-.13-.068-.132-.066-.131-.066-.133-.064-.133-.063-.133-.061-.134-.06-.134-.06-.14-.058-.13-.054-.137-.055-.136-.053-.137-.052-.137-.05-.138-.05-.138-.048-.14-.046-.138-.045-.14-.044-.139-.042-.14-.04-.14-.04-.141-.038-.14-.037-.142-.035-.142-.034-.141-.032-.142-.03-.142-.03-.143-.029-.142-.026-.143-.026-.143-.023-.143-.023-.143-.02-.144-.02-.143-.019-.143-.017-.144-.015-.144-.014-.143-.012-.144-.011-.144-.01-.143-.008-.144-.007-.144-.006-.143-.004-.144-.002-.144-.002h-.143l-.03.001.046 3.822h.187l.104.002.105.003.106.003.105.005.105.006.105.007.105.008.105.009.106.01.105.01.105.013.105.013.105.014.105.015.105.016.105.018.105.018.104.02.105.02.104.021.104.023.104.024.104.024.104.026.104.027.103.027.103.03.103.03.103.03.102.032.103.033.102.034.102.035.1.036.102.037.1.038.102.04.1.04.1.041.1.042.098.043.1.045.098.045.098.046.097.048.097.048.097.05.097.05.096.05.095.053.095.053.095.054.094.056.093.056.093.057.093.058.092.06.091.06.091.06.09.062.09.063.09.063.088.065.088.066.088.066.086.068.087.068.085.07.085.07.084.07.084.073.083.073.082.073.081.075.081.075.08.076.08.078.078.078.078.078.077.08.076.08.076.082.075.082.074.083.073.083.072.085.072.085.07.086.07.087.07.087.068.089.067.089.067.09.065.09.065.091.064.092.063.093.062.093.061.094.06.095.06.095.058.096.057.096.057.098.055.097.055.099.053.099.053.1.051.1.051.1.05.102.048.102.048.103.046.103.046.104.044.104.044.105.042.105.041.105.04.107.04.106.038.107.037.108.036.108.035.109.033.108.033.11.032.11.03.11.03.11.028.11.027.112.026.111.025.112.024.113.022.112.022.113.02.113.02.113.017.114.017.114.016.114.014.114.014.115.012.115.01.115.01.115.01.116.007.115.006.116.005.116.004.116.003.116.001.117v.232l-.003.117-.003.116-.005.117-.005.117-.007.116-.008.117-.01.117-.01.117-.012.116-.013.117-.014.117-.015.116-.017.117-.018.116-.019.116-.02.117-.021.116-.023.116-.024.115-.025.116-.026.116-.028.115-.028.115-.03.115-.031.115-.033.114-.033.114-.035.114-.036.114-.037.114-.038.113-.04.113-.04.112-.042.113-.043.111-.045.112-.045.111-.047.111-.047.11-.05.11-.05.11-.05.11-.053.108-.054.109-.054.108-.056.107-.057.107-.059.107-.059.105-.06.106-.062.105-.063.104-.063.104-.065.104-.066.102-.067.102-.069.102-.07.101-.07.1-.071.1-.073.1-.073.098-.075.098-.076.097-.076.096-.078.096-.08.095-.08.094-.08.094-.082.093-.083.092-.084.091-.085.09-.086.09-.087.09-.088.088-.089.087-.09.087-.09.086-.092.085-.093.084-.094.083-.094.083-.096.081-.096.08-.097.08-.099.08-.099.077-.1.077-.1.076-.102.075-.102.075-.104.073-.104.072-.105.072-.105.07-.107.07-.107.067-.108.068-.109.066-.11.065-.11.064-.11.063-.113.063-.112.06-.113.06-.114.06-.115.057-.115.057-.116.056-.117.054-.117.054-.118.052-.118.051-.12.05-.119.05-.12.047-.12.047-.122.045-.122.044-.122.043-.123.042-.124.041-.124.04-.124.038-.125.037-.125.036-.126.035-.127.033-.126.033-.127.03-.128.03-.128.03-.128.027-.129.026-.129.025-.129.023-.13.023-.13.02-.13.02-.13.02-.131.017-.131.016-.132.014-.131.014-.132.012-.132.011-.132.01-.133.008-.132.007-.133.006-.133.004-.133.003-.133.002h-.267l-.133-.003-.133-.003-.134-.005-.133-.006-.134-.007-.134-.009-.133-.01-.134-.011-.133-.013-.134-.014-.133-.015-.133-.017-.134-.018-.133-.02-.133-.02-.133-.022-.133-.023-.132-.025-.133-.026-.132-.027-.132-.028-.132-.03-.131-.031-.132-.033-.13-.034-.132-.035-.13-.036-.13-.038-.13-.039-.13-.04-.13-.042-.128-.043-.129-.044-.128-.045-.128-.047-.128-.048-.127-.05-.126-.05-.126-.052-.126-.053-.125-.055-.125-.056-.124-.057-.124-.058-.123-.06-.123-.06-.122-.062-.121-.063-.122-.065-.12-.066-.12-.066-.119-.069-.119-.069-.117-.07-.118-.072-.116-.073-.116-.075-.115-.075-.115-.076-.114-.078-.113-.079-.112-.08-.112-.081-.11-.082-.11-.084-.11-.084-.108-.086-.108-.087-.107-.088-.106-.09-.105-.09-.104-.09-.103-.093-.103-.093-.101-.095-.101-.095-.1-.097-.099-.097-.097-.099-.097-.1-.096-.1-.095-.102-.094-.102-.093-.104-.092-.105-.091-.105-.09-.107-.089-.107-.088-.109-.086-.11-.086-.11-.085-.11-.083-.113-.083-.113-.081-.114-.08-.114-.08-.116-.077-.116-.077-.117-.076-.119-.074-.119-.073-.12-.072-.12-.071-.12-.07-.123-.068-.123-.067-.123-.066-.125-.065-.125-.064-.125-.062-.127-.061-.127-.06-.127-.058-.129-.057-.129-.056-.13-.055-.13-.053-.13-.052-.132-.05-.133-.05-.132-.048-.133-.046-.134-.046-.135-.044-.135-.042-.135-.041-.136-.04-.136-.039-.137-.037-.137-.035-.138-.034-.138-.033-.139-.032-.139-.03-.14-.028-.139-.028-.14-.025-.14-.025-.141-.023-.141-.021-.142-.02-.142-.019-.142-.017-.142-.016-.142-.014-.143-.013-.143-.011-.143-.01-.143-.008-.144-.007-.144-.006-.144-.004-.144-.002-.144-.001-.144v-.144l.002-.145.004-.144.005-.145.006-.144.008-.145.01-.144.01-.145.012-.144.014-.145.016-.144.017-.145.018-.144.02-.144.021-.144.023-.144.024-.144.026-.144.027-.143.029-.143.03-.143.032-.143.033-.143.035-.142.036-.142.038-.142.04-.142.04-.14.042-.142.043-.14.045-.14.047-.14.048-.14.05-.14.05-.138.053-.138.053-.138.056-.137.056-.137.059-.137.06-.136.06-.135.062-.135.064-.134.066-.134.066-.133.068-.133.07-.132.07-.132.073-.13.074-.13.075-.13.076-.129.078-.128.079-.128.08-.126.082-.126.083-.126.085-.124.086-.124.087-.123.088-.123.09-.121.09-.12.093-.12.094-.12.095-.118.096-.117.097-.116.099-.116.1-.114.101-.114.102-.113.104-.111.105-.111.106-.11.107-.109.108-.108.11-.107.11-.106.112-.104.113-.104.114-.103.115-.101.117-.101.117-.1.118-.098.12-.097.12-.097.122-.095.123-.093.124-.093.124-.092.126-.09.127-.09.128-.087.128-.087.13-.086.13-.084.132-.083.133-.082.133-.08.134-.08.135-.078.136-.077.137-.075.138-.074.139-.073.14-.072.14-.07.14-.069.142-.067.143-.067.143-.064.144-.064.145-.062.145-.06.147-.06.146-.058.148-.056.148-.055.15-.054.149-.052.15-.05.15-.05.152-.048.151-.046.153-.045.153-.043.153-.042.154-.04.155-.04.155-.037.155-.036.156-.034.156-.033.157-.032.157-.03.158-.028.158-.027.158-.025.159-.024.159-.022.159-.02.06-.008zm.067 5.67L21.4 9.571l-.13.018-.14.021-.14.023-.14.023-.14.025-.139.027-.139.028-.138.029-.138.03-.137.032-.137.033-.137.035-.137.036-.13.035-.14.04-.135.04-.135.04-.133.043-.134.044-.132.045-.133.046-.131.047-.131.049-.13.05-.13.05-.13.053-.128.054-.128.054-.127.056-.127.058-.126.058-.125.06-.125.06-.124.063-.122.063-.123.064-.121.066-.122.066-.12.068-.119.069-.118.07-.118.071-.117.072-.116.074-.115.074-.115.076-.113.076-.113.078-.112.079-.11.08-.11.08-.11.082-.108.083-.107.083-.107.085-.105.086-.105.087-.103.088-.103.088-.101.09-.1.09-.1.092-.099.092-.097.093-.097.095-.095.095-.095.095-.093.097-.092.098-.091.098-.09.1-.09.1-.088.1-.086.102-.086.103-.085.103-.083.104-.082.104-.082.106-.08.106-.079.107-.078.108-.076.108-.076.109-.074.11-.073.11-.072.11-.071.112-.07.112-.068.113-.067.113-.066.114-.065.114-.063.115-.063.116-.06.116-.06.117-.06.117-.056.117-.057.118-.054.119-.054.119-.052.12-.051.119-.05.12-.048.12-.048.122-.046.121-.044.122-.044.122-.042.122-.04.123-.04.123-.039.124-.037.123-.035.124-.034.124-.034.125-.031.124-.03.125-.03.125-.028.126-.026.125-.026.126-.023.125-.023.126-.021.126-.02.127-.02.126-.016.126-.017.127-.014.126-.014.127-.012.126-.01.127-.01.126-.008.127-.007.127-.006.126-.004.127-.003.126-.002.126v.253l.003.126.003.126.005.126.006.126.007.125.009.125.01.126.011.125.013.125.013.124.015.125.016.124.018.124.019.123.02.123.021.124.023.122.023.123.025.122.027.122.027.121.029.121.03.12.03.121.033.12.034.12.035.118.036.119.037.118.038.118.04.117.04.117.042.116.043.116.044.115.046.115.046.114.047.114.05.113.05.113.05.111.052.112.053.11.054.11.056.11.056.11.058.108.058.107.06.107.06.107.062.105.063.105.064.104.065.104.066.103.066.102.068.101.07.1.069.1.07.1.072.098.073.097.074.097.074.096.076.095.076.095.077.093.079.093.079.091.08.091.08.09.082.09.083.088.083.088.084.086.085.086.086.085.087.084.087.083.088.082.09.08.09.08.09.08.091.078.092.078.093.076.093.075.094.075.095.073.096.073.096.071.096.07.098.07.098.068.099.068.099.066.1.065.1.065.102.063.101.062.102.061.103.06.103.06.104.058.104.056.105.056.106.055.105.054.107.052.106.052.108.05.107.05.108.048.108.047.11.046.108.045.11.044.11.043.11.041.11.04.112.04.11.038.112.037.112.036.112.035.113.034.112.033.113.031.113.03.113.03.114.028.114.027.114.025.114.025.114.024.114.022.115.021.114.02.115.02.115.017.115.017.115.015.115.015.115.013.115.012.115.01.115.01.116.01.115.007.115.006.115.005.115.004.115.003.115.002h.23l.114-.001.115-.003.114-.004.115-.004.114-.006.114-.008.114-.008.114-.01.113-.01.113-.011.113-.013.113-.014.113-.015.112-.016.112-.017.112-.018.111-.02.112-.02.11-.021.111-.022.11-.024.11-.025.11-.025.11-.027.108-.028.108-.029.109-.03.107-.03.108-.032.106-.033.107-.034.106-.035.105-.036.105-.037.105-.038.104-.04.104-.04.103-.04.103-.042.102-.043.101-.044.101-.045.1-.046.1-.046.1-.048.099-.048.098-.05.098-.05.097-.052.096-.052.096-.053.095-.055.094-.055.094-.056.093-.056.093-.058.092-.058.09-.06.091-.06.09-.06.09-.063.087-.062.088-.064.087-.064.086-.065.086-.066.084-.066.084-.068.083-.068.082-.069.082-.07.081-.07.08-.071.08-.072.078-.073.077-.073.077-.074.076-.074.075-.076.074-.076.073-.076.073-.078.072-.078.07-.078.07-.08.07-.08.068-.08.067-.08.066-.083.066-.082.064-.083.064-.083.063-.084.062-.084.06-.085.06-.086.06-.086.058-.086.057-.087.056-.088.055-.088.055-.088.053-.089.052-.09.052-.09.05-.089.05-.09.048-.092.048-.091.046-.092.046-.092.044-.093.044-.092.043-.094.041-.093.04-.094.04-.094.039-.094.037-.095.037-.095.036-.095.034-.096.034-.096.032-.096.032-.096.03-.097.03-.096.028-.097.027-.098.027-.097.025-.097.024-.098.024-.097.022-.099.021-.098.02-.098.02-.098.018-.098.017-.099.016-.098.015-.099.014-.098.013-.099.012-.098.011-.1.01-.098.009-.099.008-.099.007-.098.006-.099.004-.098.004-.099.003-.099.002-.098v-.197l-.001-.098-.002-.098-.004-.098-.004-.098-.005-.098-.006-.097-.008-.098-.008-.097-.01-.097-.01-.097-.01-.097-.013-.096-.013-.097-.015-.096-.015-.096-.016-.095-.017-.095-.018-.095-.02-.095-.02-.095-.02-.094-.022-.094-.023-.094-.024-.093-.024-.093-.026-.092-.026-.093-.028-.092-.028-.091-.03-.092-.03-.09-.031-.09-.032-.091-.033-.09-.034-.089-.035-.089-.035-.088-.037-.088-.037-.088-.038-.087-.04-.086-.04-.086-.04-.086-.042-.085-.042-.085-.044-.084-.043-.084-.045-.083-.046-.082-.047-.082-.047-.082-.048-.08-.05-.082-.049-.08-.05-.079-.051-.078-.052-.078-.053-.078-.054-.077-.054-.076-.055-.076-.055-.075-.057-.075-.057-.073-.058-.074-.058-.072-.06-.072-.06-.071-.06-.071-.06-.07-.063-.07-.062-.068-.063-.068-.064-.067-.065-.067-.065-.065-.065-.066-.066-.064-.067-.063-.068-.064-.068-.062-.068-.061-.07-.06-.07-.061-.07-.06-.07-.058-.071-.058-.072-.056-.073-.057-.072-.055-.073-.055-.075-.054-.074-.053-.075-.052-.075-.052-.075-.05-.076-.05-.077-.05-.077-.048-.077-.047-.078-.047-.079-.046-.078-.045-.079-.044-.08-.044-.08-.042-.08-.042-.08-.04-.08-.041-.082-.04-.08-.038-.082-.037-.083-.037-.082-.036-.082-.035-.083-.034-.084-.034-.083-.032-.083-.032-.084-.03-.084-.03-.085-.03-.084-.028-.085-.027-.085-.026-.085-.026-.085-.025-.085-.024-.086-.023-.086-.022-.085-.02-.087-.021-.086-.02-.086-.018-.086-.018-.087-.017-.086-.016-.087-.015-.086-.015-.087-.013-.086-.013-.087-.011-.087-.011-.087-.01-.087-.01-.086-.007-.087-.008-.087-.006-.087-.006-.086-.005-.087-.004-.087-.003-.086-.002-.086-.001h-.146l.045 3.775h.077l.05.002.049.002.05.002.05.003.05.003.05.003.05.005.05.005.05.005.05.006.05.006.05.007.05.007.05.008.05.009.05.009.051.01.05.01.05.01.05.011.05.012.05.012.05.013.05.013.05.014.05.014.05.015.05.016.049.016.05.016.048.017.05.018.049.018.049.018.049.02.049.02.048.02.049.02.048.021.048.022.048.022.048.023.048.024.047.023.048.025.047.025.047.025.047.026.046.027.047.027.046.027.046.029.046.028.045.03.045.029.045.03.045.03.045.032.044.031.044.032.043.033.044.033.043.034.043.034.042.034.043.035.042.036.041.036.041.036.042.037.04.038.04.038.04.038.04.04.04.038.038.04.039.04.038.041.038.041.037.042.037.042.037.042.036.043.036.044.035.043.035.045.035.044.034.045.034.046.033.046.033.046.032.046.032.048.032.047.031.048.03.048.03.049.03.049.03.05.028.049.029.05.027.05.028.051.026.052.027.051.025.052.026.052.024.053.025.052.023.054.024.053.022.054.022.054.022.054.02.055.021.055.02.055.02.056.018.056.018.056.018.056.017.057.017.057.015.057.016.057.015.058.014.058.013.058.013.058.013.059.012.058.01.06.011.058.01.06.01.06.008.059.009.06.007.06.007.06.006.06.006.06.005.061.004.06.004.062.003.06.002.062.002.061.001.061.001.062v.123l-.002.061-.002.062-.003.062-.003.062-.005.062-.004.062-.006.061-.006.063-.006.062-.008.061-.008.063-.008.062-.01.062-.01.062-.01.062-.012.062-.012.062-.012.062-.014.061-.014.062-.014.062-.015.062-.017.061-.016.062-.017.061-.018.062-.02.061-.018.061-.02.061-.021.061-.021.061-.023.06-.022.061-.024.06-.024.06-.024.06-.026.06-.026.06-.026.06-.028.06-.028.058-.028.06-.03.058-.03.059-.03.058-.031.058-.032.058-.033.057-.033.058-.034.057-.034.056-.035.057-.036.056-.037.056-.037.056-.037.055-.039.055-.038.055-.04.054-.04.054-.041.054-.041.054-.042.053-.043.052-.043.053-.044.052-.044.051-.046.052-.045.05-.046.05-.047.05-.047.05-.048.05-.049.049-.049.048-.05.048-.05.047-.05.047-.052.047-.052.046-.052.046-.053.045-.054.045-.054.044-.055.044-.055.043-.055.043-.056.042-.057.042-.057.041-.058.04-.058.041-.059.04-.059.039-.06.038-.06.039-.06.037-.061.037-.061.036-.062.036-.063.035-.063.035-.063.034-.064.033-.064.033-.064.032-.065.032-.066.031-.065.03-.066.03-.067.03-.067.028-.067.028-.068.027-.068.027-.069.026-.068.025-.07.025-.069.024-.07.023-.07.023-.07.022-.07.02-.072.022-.071.02-.072.019-.072.018-.072.018-.072.017-.073.017-.073.015-.073.016-.074.014-.073.014-.074.012-.075.013-.074.011-.075.01-.074.01-.075.01-.075.009-.076.007-.075.007-.076.006-.076.006-.075.005-.076.004-.077.003-.076.003-.076.001-.077.001h-.153l-.077-.001-.077-.002-.077-.003-.077-.004-.077-.004-.077-.005-.077-.006-.077-.007-.078-.007-.077-.008-.077-.01-.077-.01-.077-.01-.077-.011-.077-.012-.077-.013-.077-.014-.077-.015-.077-.015-.077-.016-.077-.017-.076-.017-.077-.019-.076-.019-.076-.02-.077-.02-.076-.022-.075-.022-.076-.023-.076-.024-.075-.025-.076-.025-.075-.027-.075-.027-.074-.027-.075-.029-.074-.03-.074-.03-.074-.03-.073-.032-.073-.032-.074-.033-.072-.034-.073-.035-.072-.035-.072-.036-.072-.037-.07-.038-.072-.038-.07-.04-.07-.04-.071-.04-.07-.042-.069-.042-.069-.043-.068-.043-.069-.045-.067-.045-.068-.045-.067-.047-.066-.047-.067-.048-.065-.049-.066-.049-.064-.05-.065-.05-.064-.052-.063-.052-.063-.053-.063-.054-.062-.054-.061-.055-.061-.055-.06-.056-.06-.057-.06-.058-.059-.058-.058-.059-.058-.059-.057-.06-.057-.06-.056-.062-.056-.062-.055-.062-.054-.064-.054-.063-.053-.065-.053-.065-.051-.065-.052-.066-.05-.067-.05-.067-.05-.068-.048-.069-.049-.069-.047-.069-.047-.07-.046-.07-.045-.072-.045-.071-.043-.072-.044-.073-.042-.073-.042-.074-.041-.074-.04-.075-.04-.075-.04-.075-.037-.076-.038-.077-.036-.077-.036-.077-.035-.078-.035-.078-.033-.079-.033-.079-.032-.08-.031-.079-.03-.08-.03-.08-.029-.082-.028-.081-.027-.082-.026-.082-.026-.082-.025-.083-.024-.083-.023-.084-.022-.083-.021-.084-.02-.085-.02-.084-.019-.085-.018-.085-.017-.086-.016-.085-.015-.086-.015-.086-.013-.086-.013-.087-.012-.087-.01-.087-.01-.087-.01-.087-.008-.088-.007-.087-.006-.088-.006-.088-.005-.088-.003-.088-.003-.089-.002-.088v-.266l.002-.09.003-.088.003-.09.005-.088.005-.09.007-.088.007-.09.009-.088.009-.09.01-.089.011-.089.012-.089.013-.089.014-.089.015-.089.016-.088.016-.09.018-.088.019-.089.02-.088.02-.088.02-.089.023-.088.024-.088.024-.088.025-.087.026-.088.027-.087.028-.087.028-.087.03-.087.031-.087.032-.086.032-.086.034-.086.034-.086.035-.085.037-.085.037-.085.038-.084.039-.085.04-.083.04-.084.042-.083.042-.083.044-.083.044-.082.045-.082.047-.081.047-.081.047-.08.05-.081.049-.08.05-.08.052-.079.052-.078.053-.078.054-.078.055-.077.056-.077.056-.076.058-.076.058-.075.059-.075.06-.074.06-.074.062-.073.062-.073.063-.072.064-.071.065-.071.065-.07.067-.07.067-.07.067-.068.069-.068.07-.068.07-.066.07-.066.072-.066.072-.065.073-.064.074-.063.075-.063.075-.062.076-.062.077-.06.077-.06.078-.06.079-.058.08-.058.08-.057.08-.057.081-.056.082-.054.083-.055.083-.053.084-.052.085-.052.085-.051.086-.05.086-.05.087-.048.088-.048.088-.047.088-.046.09-.046.09-.044.09-.043.09-.043.092-.042.091-.041.093-.04.093-.04.093-.038.094-.037.094-.037.095-.036.095-.034.095-.034.096-.033.097-.032.097-.031.097-.03.098-.03.098-.028.098-.027.099-.027.099-.025.1-.025.1-.023.1-.023.1-.021.1-.02.102-.02.05-.01zm1.242 7.26-1.152.275-.068-5.71-.054.012-.082.02-.082.02-.081.02-.081.022-.08.023-.081.023-.08.024-.08.025-.078.025-.08.026-.078.027-.078.028-.078.028-.077.03-.078.03-.076.03-.076.031-.077.033-.075.032-.075.034-.074.034-.074.035-.074.035-.073.037-.073.037-.072.037-.072.038-.072.04-.07.039-.07.04-.07.041-.07.042-.069.042-.068.043-.068.043-.067.044-.067.045-.066.045-.066.046-.065.046-.065.047-.064.048-.063.048-.063.05-.062.048-.062.05-.06.05-.062.052-.06.051-.059.052-.058.053-.058.053-.058.054-.057.054-.056.054-.056.055-.055.056-.054.056-.053.056-.054.058-.052.057-.052.058-.05.058-.051.059-.05.06-.049.058-.048.06-.048.061-.047.06-.046.062-.046.062-.045.062-.044.062-.044.063-.042.063-.043.063-.041.064-.04.064-.04.064-.04.065-.039.065-.037.065-.038.066-.036.066-.036.066-.035.066-.034.067-.034.067-.032.067-.032.068-.032.067-.03.068-.03.068-.03.069-.027.068-.028.069-.027.069-.026.069-.025.069-.025.07-.024.07-.023.069-.022.07-.022.07-.02.07-.02.07-.02.07-.019.07-.018.071-.017.07-.016.072-.016.07-.015.071-.014.071-.013.071-.013.071-.012.071-.01.071-.011.071-.01.071-.008.071-.009.071-.007.071-.007.071-.005.071-.006.071-.004.071-.004.071-.003.071-.002.07-.001.072-.001.07v.141l.002.07.002.07.003.07.004.07.004.07.005.07.006.07.007.07.007.069.008.069.008.069.01.068.01.069.01.068.012.068.012.069.013.067.013.068.014.067.015.067.016.067.016.067.017.066.018.066.018.066.018.066.02.065.02.065.02.065.022.064.022.064.023.064.023.063.024.064.025.063.025.062.026.062.026.062.027.062.028.06.028.062.029.06.03.06.03.06.03.06.03.058.032.059.033.058.033.058.033.057.034.057.034.056.035.056.036.056.036.055.036.055.037.055.038.053.038.054.038.053.04.053.04.052.04.051.04.051.04.051.042.05.042.05.043.05.042.048.044.048.043.048.044.047.045.047.045.046.045.046.046.045.046.045.047.044.047.044.047.043.048.042.048.042.049.042.049.04.049.041.05.04.05.04.05.038.05.038.051.038.051.037.052.037.052.036.052.035.052.035.053.034.053.034.053.033.053.032.054.032.054.032.054.03.055.03.055.03.054.03.056.028.055.028.056.027.055.026.056.027.056.025.057.025.056.024.057.024.056.023.057.023.058.021.057.022.057.02.058.02.057.02.058.019.058.018.058.018.058.017.058.016.058.016.059.015.058.015.058.014.059.013.058.013.059.012.058.012.06.011.058.01.058.01.06.01.058.008.058.008.059.008.059.007.058.006.059.006.058.005.059.004.058.004.059.003.058.003.058.002.059.002h.058l.058.001h.116l.057-.002.058-.002.058-.002.057-.004.058-.003.057-.004.057-.005.056-.005.057-.006.057-.007.056-.006.056-.008.056-.008.056-.009.056-.009.056-.01.055-.01.055-.01.055-.012.055-.012.054-.012.055-.013.054-.013.054-.014.053-.014.053-.015.054-.016.052-.016.053-.016.052-.017.052-.018.052-.017.052-.019.051-.019.051-.019.05-.02.051-.02.05-.02.05-.022.05-.022.049-.022.049-.023.048-.023.048-.023.048-.024.048-.024.047-.025.047-.025.046-.026.046-.026.046-.026.046-.027.045-.028.044-.027.045-.028.044-.029.044-.029.043-.029.043-.03.042-.03.042-.03.042-.03.041-.032.041-.031.04-.032.04-.032.04-.033.04-.032.038-.034.039-.033.038-.034.038-.034.037-.035.036-.034.037-.035.036-.036.035-.035.035-.036.035-.037.034-.036.034-.037.033-.037.033-.037.032-.038.032-.038.031-.038.031-.038.03-.038.03-.04.03-.038.03-.04.028-.039.028-.04.028-.04.027-.04.027-.04.026-.04.026-.04.026-.042.024-.04.025-.042.024-.041.023-.042.023-.041.023-.042.022-.042.021-.042.021-.042.021-.043.02-.042.02-.043.019-.042.018-.043.019-.043.017-.043.017-.043.017-.043.016-.044.016-.043.015-.043.015-.044.014-.043.014-.044.013-.043.013-.044.012-.044.012-.044.012-.043.01-.044.011-.044.01-.044.01-.043.008-.045.009-.043.008-.044.007-.044.008-.044.006-.044.006-.044.006-.044.005-.043.005-.044.004-.044.004-.043.003-.044.003-.043.002-.044.002-.043.002-.043v-.043l.001-.044v-.085l-.001-.043-.001-.043-.002-.043-.002-.042-.003-.043-.003-.042-.003-.042-.004-.042-.005-.042-.004-.042-.006-.042-.005-.041-.006-.041-.007-.041-.007-.042-.007-.04-.008-.041-.008-.04-.008-.041-.01-.04-.009-.04-.01-.04-.01-.04-.01-.04-.011-.039-.012-.04-.011-.038-.012-.039-.013-.038-.013-.038-.013-.038-.014-.038-.014-.037-.014-.038-.015-.037-.015-.037-.015-.037-.016-.036-.016-.036-.016-.036-.017-.036-.017-.035-.018-.036-.018-.035-.018-.034-.018-.035-.019-.034-.019-.034-.02-.033-.02-.034-.02-.032-.02-.033-.02-.033-.021-.032-.021-.032-.022-.032-.021-.03-.023-.032-.022-.03-.022-.03-.023-.031-.023-.03-.024-.03-.023-.028-.024-.03-.024-.028-.025-.028-.024-.028-.025-.028-.025-.027-.026-.027-.025-.027-.026-.026-.026-.026-.026-.026-.026-.025-.027-.025-.027-.025-.027-.024-.027-.024-.027-.024-.028-.023-.027-.023-.028-.023-.028-.022-.029-.022-.028-.022-.029-.021-.028-.021-.03-.02-.028-.02-.03-.02-.028-.02-.03-.02-.03-.018-.029-.019-.03-.018-.03-.018-.03-.017-.03-.017-.03-.017-.03-.017-.03-.016-.03-.015-.031-.016-.031-.015-.03-.014-.031-.015-.031-.014-.031-.013-.031-.014-.031-.012-.031-.013-.031-.012-.032-.012-.03-.011-.032-.012-.031-.01-.032-.01-.03-.01-.032-.01-.031-.01-.032-.009-.031-.009-.032-.008-.03-.008-.032-.008-.032-.007-.031-.007-.031-.007-.032-.006-.03-.006-.032-.005-.032-.006-.03-.005-.032-.004-.03-.005-.032-.004-.031-.003-.03-.003-.032-.003-.03-.003-.031-.002-.031-.002-.03-.002-.031-.001-.03-.001-.031-.001h-.151l-.03.002-.03.002-.03.001-.029.002-.029.003-.03.002-.028.003-.03.003-.028.004-.03.004-.028.004-.028.004-.029.005-.028.005-.028.005-.028.005-.028.006-.027.006-.028.006z" class="ccustom" clip-rule="evenodd"/></svg>