<svg width="414" height="89" viewBox="0 0 414 89" fill="none" xmlns="http://www.w3.org/2000/svg">
<g filter="url(#filter0_d_776_479)">
<path d="M47.1713 48.6309H21.8066V64.9367H47.1713V57.2129H30.8655" stroke="black" stroke-width="3"/>
<path d="M106.959 66.7485V48.6309H132.324V66.7485" stroke="black" stroke-width="3"/>
<path d="M199.359 46.8189L199.359 64.9365L173.995 64.9365L173.995 46.8189" stroke="black" stroke-width="3"/>
<path d="M333.43 46.8189L333.43 64.9365L306.253 64.9365L306.253 46.8189" stroke="url(#paint0_linear_776_479)" stroke-width="3"/>
<path d="M139.57 46.8188V66.7483" stroke="black" stroke-width="3"/>
<path d="M366.041 46.8188V66.7483" stroke="url(#paint1_linear_776_479)" stroke-width="3"/>
<path d="M54.418 66.7485C54.418 58.5956 61.8915 48.6309 61.8915 48.6309H62.5709C62.5709 48.6309 70.7238 60.4073 70.7238 66.7485" stroke="black" stroke-width="3"/>
<path d="M56.5 57.5249H67.5" stroke="black" stroke-width="3"/>
<path d="M235.5 47.0249V64.937H248.276" stroke="black" stroke-width="3"/>
<path d="M234 47.5249H248.501M235.019 56.5249H244.649" stroke="black" stroke-width="3"/>
<path d="M145.006 48.6309H156.782M168.559 48.6309H156.782M156.782 48.6309V66.7485" stroke="black" stroke-width="3"/>
<path d="M277.266 48.6309H289.042M300.819 48.6309H289.042M289.042 48.6309V66.7485" stroke="url(#paint2_linear_776_479)" stroke-width="3"/>
<path d="M260.959 64.9367H274.114V55.2275H262.771V30.5132H285.418V36.8544" stroke="url(#paint3_linear_776_479)" stroke-width="3"/>
<rect x="282.389" y="37.4482" width="6.05882" height="4.24706" stroke="url(#paint4_linear_776_479)" stroke-width="3"/>
<rect x="372.977" y="48.3188" width="20.5529" height="16.9294" stroke="url(#paint5_linear_776_479)" stroke-width="3"/>
<path d="M207.512 78.5249H5.5V41.3837L132.324 1.5249L409.524 31.419" stroke="url(#paint6_linear_776_479)" stroke-width="3"/>
<path d="M359 48.0249V65.1001L345.512 65.0034L345.623 48.0249H359Z" stroke="url(#paint7_linear_776_479)" stroke-width="3"/>
<path d="M338.5 48.0249H349.5" stroke="#6FAD34" stroke-width="3"/>
<path d="M338.5 65.0249H349.5" stroke="#6FAD34" stroke-width="3"/>
</g>
<path d="M96.998 48.0249V57.8247H77.5V48.0249H96.998Z" stroke="black" stroke-width="3"/>
<path d="M77.498 57.5249V66.5249" stroke="black" stroke-width="3"/>
<path d="M78.877 58.5957C91.5593 58.5957 99.7122 64.031 99.7117 66.7486" stroke="black" stroke-width="3"/>
<path d="M225.034 48.2993V58.3745L205.944 58.5142L205.557 48.0454L225.034 48.2993Z" stroke="black" stroke-width="3"/>
<path d="M206 58.0249V67.0249" stroke="black" stroke-width="3"/>
<path d="M206.5 58.5249C219.892 58.5249 228.501 63.6805 228.5 66.5249" stroke="black" stroke-width="3"/>
<defs>
<filter id="filter0_d_776_479" x="0" y="0" width="413.684" height="88.0249" filterUnits="userSpaceOnUse" color-interpolation-filters="sRGB">
<feFlood flood-opacity="0" result="BackgroundImageFix"/>
<feColorMatrix in="SourceAlpha" type="matrix" values="0 0 0 0 0 0 0 0 0 0 0 0 0 0 0 0 0 0 127 0" result="hardAlpha"/>
<feOffset dy="4"/>
<feGaussianBlur stdDeviation="2"/>
<feComposite in2="hardAlpha" operator="out"/>
<feColorMatrix type="matrix" values="0 0 0 0 0 0 0 0 0 0 0 0 0 0 0 0 0 0 0.25 0"/>
<feBlend mode="normal" in2="BackgroundImageFix" result="effect1_dropShadow_776_479"/>
<feBlend mode="normal" in="SourceGraphic" in2="effect1_dropShadow_776_479" result="shape"/>
</filter>
<linearGradient id="paint0_linear_776_479" x1="333.43" y1="55.8777" x2="306.253" y2="55.8777" gradientUnits="userSpaceOnUse">
<stop stop-color="#275A53"/>
<stop offset="0.455" stop-color="#6FAD34"/>
<stop offset="1" stop-color="#275A53"/>
</linearGradient>
<linearGradient id="paint1_linear_776_479" x1="366.041" y1="56.7836" x2="367.041" y2="56.7836" gradientUnits="userSpaceOnUse">
<stop stop-color="#275A53"/>
<stop offset="0.455" stop-color="#6FAD34"/>
<stop offset="1" stop-color="#275A53"/>
</linearGradient>
<linearGradient id="paint2_linear_776_479" x1="277.266" y1="57.6897" x2="300.819" y2="57.6897" gradientUnits="userSpaceOnUse">
<stop stop-color="#275A53"/>
<stop offset="0.455" stop-color="#6FAD34"/>
<stop offset="1" stop-color="#275A53"/>
</linearGradient>
<linearGradient id="paint3_linear_776_479" x1="262.771" y1="47.7249" x2="284.512" y2="47.7249" gradientUnits="userSpaceOnUse">
<stop stop-color="#275A53"/>
<stop offset="0.455" stop-color="#6FAD34"/>
<stop offset="1" stop-color="#275A53"/>
</linearGradient>
<linearGradient id="paint4_linear_776_479" x1="280.889" y1="39.5718" x2="289.947" y2="39.5718" gradientUnits="userSpaceOnUse">
<stop stop-color="#275A53"/>
<stop offset="0.455" stop-color="#6FAD34"/>
<stop offset="1" stop-color="#275A53"/>
</linearGradient>
<linearGradient id="paint5_linear_776_479" x1="371.477" y1="56.7836" x2="395.03" y2="56.7836" gradientUnits="userSpaceOnUse">
<stop stop-color="#275A53"/>
<stop offset="0.455" stop-color="#6FAD34"/>
<stop offset="1" stop-color="#275A53"/>
</linearGradient>
<linearGradient id="paint6_linear_776_479" x1="5.5" y1="40.0249" x2="409.524" y2="40.0249" gradientUnits="userSpaceOnUse">
<stop stop-color="#275A53"/>
<stop offset="0.455" stop-color="#6FAD34"/>
<stop offset="1" stop-color="#275A53"/>
</linearGradient>
<linearGradient id="paint7_linear_776_479" x1="340.5" y1="58.4914" x2="360.5" y2="58.4914" gradientUnits="userSpaceOnUse">
<stop stop-color="#275A53"/>
<stop offset="0.455" stop-color="#6FAD34"/>
<stop offset="1" stop-color="#275A53"/>
</linearGradient>
</defs>
</svg>
