<svg xmlns="http://www.w3.org/2000/svg" width="287" height="38" fill="none"><path fill="#275A53" d="M.99 37c.278 0 .538-.26.777-.777.279-.558.418-1.495.418-2.81v-28.7c0-1.275-.14-2.192-.418-2.75-.24-.558-.499-.837-.778-.837h11.54c-.28 0-.558.28-.837.837-.28.519-.419 1.455-.419 2.81v28.64c0 1.275.14 2.192.419 2.75.279.558.558.837.837.837H.989zm17.217 0c.279 0 .558-.279.837-.837.279-.558.419-1.475.419-2.75v-28.7c0-1.275-.14-2.172-.419-2.69-.279-.558-.558-.857-.837-.897h11.719c-.28 0-.359.28-.24.837.16.558.818 1.515 1.974 2.87.319.32.837.917 1.554 1.794.758.837 1.654 1.853 2.69 3.05a230.944 230.944 0 0 1 3.29 3.886l3.586 4.185a879.506 879.506 0 0 1 3.528 4.006h.06V4.714c0-1.276-.14-2.173-.419-2.69-.279-.559-.558-.858-.837-.898h11.719c-.279 0-.558.28-.837.837-.28.558-.419 1.495-.419 2.81v28.64c0 1.275.14 2.192.419 2.75.279.558.558.837.837.837H46.547c.24 0 .26-.279.06-.837-.16-.558-.777-1.515-1.853-2.87a137.72 137.72 0 0 0-2.213-2.75 232.204 232.204 0 0 0-3.109-3.827 586.066 586.066 0 0 0-3.527-4.364 216.694 216.694 0 0 0-3.707-4.425 318.172 318.172 0 0 0-3.349-4.066h-.179v19.552c0 1.275.14 2.192.419 2.75.279.558.558.837.837.837H18.207zm55.79 0c.278 0 .557-.279.836-.837.28-.558.419-1.475.419-2.75V9.497c0-.877-.1-1.395-.3-1.555-.198-.16-.896-.239-2.092-.239h-4.364c-2.312 0-4.186.26-5.62.777-1.396.479-2.313.937-2.751 1.376l1.196-6.936V1.126h37.07V2.92l1.195 6.936c-.438-.439-1.375-.897-2.81-1.376-1.395-.518-3.249-.777-5.56-.777H86.91c-1.236 0-1.953.08-2.153.24-.199.159-.299.677-.299 1.554v23.916c0 1.275.14 2.192.419 2.75.279.558.558.837.837.837H73.996zm47.692.598c-6.855 0-11.818-1.634-14.887-4.903-3.029-3.308-4.544-7.912-4.544-13.811 0-3.787.658-7.035 1.973-9.746 1.355-2.75 3.448-4.863 6.278-6.338 2.87-1.514 6.597-2.272 11.18-2.272h1.854c4.504 0 8.151.738 10.941 2.213 2.83 1.474 4.903 3.587 6.219 6.337 1.315 2.75 1.973 6.02 1.973 9.806 0 5.899-1.515 10.503-4.544 13.811-3.03 3.269-7.893 4.903-14.589 4.903h-1.854zm.598-6.637h.658c2.431 0 4.424-.398 5.979-1.195 1.594-.798 2.77-2.073 3.528-3.827.757-1.794 1.136-4.145 1.136-7.055 0-2.83-.399-5.102-1.196-6.816-.758-1.754-1.933-3.01-3.528-3.767-1.554-.797-3.527-1.196-5.919-1.196h-.658c-2.471 0-4.524.419-6.158 1.256-1.634.797-2.85 2.053-3.647 3.767-.757 1.713-1.136 3.966-1.136 6.756 0 2.91.398 5.261 1.196 7.055.837 1.754 2.052 3.03 3.647 3.826 1.634.798 3.667 1.196 6.098 1.196zM147.809 37c.279 0 .538-.279.777-.837.279-.558.419-1.475.419-2.75v-28.7c0-1.275-.14-2.172-.419-2.69-.279-.558-.558-.857-.837-.897h19.611c3.508 0 6.298.439 8.371 1.316 2.112.877 3.627 2.172 4.544 3.886.956 1.674 1.435 3.767 1.435 6.278 0 1.794-.339 3.388-1.017 4.783-.637 1.395-1.534 2.531-2.69 3.408a11.43 11.43 0 0 1-3.887 1.913v.18c1.595.637 3.269 1.893 5.023 3.766a36.492 36.492 0 0 1 4.723 6.159c.917 1.474 1.754 2.53 2.511 3.169.758.637 1.336.976 1.734 1.016H173.04c.479-.04.857-.299 1.136-.777.319-.518.219-1.355-.299-2.511-.837-1.914-1.853-3.568-3.049-4.963s-2.591-2.451-4.185-3.169c-1.555-.757-3.348-1.136-5.381-1.136h-.658c-1.236 0-1.953.1-2.152.3-.2.198-.299.697-.299 1.494v7.175c0 1.275.139 2.192.418 2.75.279.558.558.837.837.837h-11.599zm12.795-18.595h4.903c2.511 0 4.325-.438 5.441-1.315 1.116-.917 1.674-2.411 1.674-4.484 0-.917-.2-1.734-.598-2.451-.399-.718-1.076-1.276-2.033-1.675-.917-.398-2.212-.597-3.886-.597h-5.501c-1.236 0-1.953.06-2.152.179-.2.12-.299.578-.299 1.375v7.354c0 .797.099 1.276.299 1.435.199.12.916.18 2.152.18zM190.774 37c.279 0 .538-.26.778-.777.279-.558.418-1.495.418-2.81v-28.7c0-1.275-.139-2.192-.418-2.75-.24-.558-.499-.837-.778-.837h11.54c-.279 0-.558.28-.837.837-.279.519-.419 1.455-.419 2.81v28.64c0 1.275.14 2.192.419 2.75.279.558.558.837.837.837h-11.54zm17.218 0c.279 0 .558-.279.837-.837.279-.558.418-1.475.418-2.75v-28.7c0-1.275-.139-2.172-.418-2.69-.279-.558-.558-.857-.837-.897h34.917V2.92l1.196 6.936c-.997-.439-2.751-.897-5.262-1.376-2.511-.518-5.54-.777-9.088-.777h-8.849c-1.195 0-1.913.1-2.152.3-.199.159-.299.657-.299 1.494v4.424c0 .877.1 1.395.299 1.555.239.16.937.239 2.093.239h8.609c2.312 0 4.166-.12 5.561-.359 1.435-.279 2.371-.558 2.81-.837-.16.758-.339 1.634-.538 2.63-.2.997-.359 1.954-.479 2.87-.119.918-.179 1.675-.179 2.273h-15.784c-1.156 0-1.854.08-2.093.239-.199.12-.299.638-.299 1.555v4.424c0 .917.1 1.455.299 1.614.199.16.897.24 2.093.24h16.143c2.312 0 4.165-.26 5.56-.778 1.435-.558 2.372-1.096 2.81-1.614l-1.196 7.175V37h-36.172zm41.273 0c.279 0 .558-.279.837-.837.279-.558.419-1.475.419-2.75v-28.7c0-1.275-.14-2.172-.419-2.69-.279-.558-.558-.857-.837-.897h34.917V2.92l1.196 6.936c-.996-.439-2.75-.897-5.261-1.376-2.512-.518-5.541-.777-9.088-.777h-8.849c-1.196 0-1.913.1-2.153.3-.199.159-.299.657-.299 1.494v4.424c0 .877.1 1.395.299 1.555.24.16.937.239 2.093.239h8.61c2.312 0 4.165-.12 5.56-.359 1.435-.279 2.372-.558 2.81-.837a273.8 273.8 0 0 0-.538 2.63 42.858 42.858 0 0 0-.478 2.87c-.12.918-.18 1.675-.18 2.273H262.12c-1.156 0-1.853.08-2.093.239-.199.12-.299.638-.299 1.555v4.424c0 .917.1 1.455.299 1.614.2.16.897.24 2.093.24h16.143c2.312 0 4.165-.26 5.561-.778 1.435-.558 2.371-1.096 2.81-1.614l-1.196 7.175V37h-36.173z"/></svg>